PathFileType	4	(X/Y/Z)	/Users/niels/Desktop/University/Third Semester/Perception and Action/Exam/Gymnastics Motion Tracking/Code for Gym Tracking/Analyzed Data/Webcam_Backflip/id1_1_trajectory_Sports2D/id1_1_trajectory_Sports2D_px_person00.trc
DataRate	CameraRate	NumFrames	NumMarkers	Units	OrigDataRate	OrigDataStartFrame	OrigNumFrames
29.874476987447697	29.874476987447697	11	22	m	29.874476987447697	179	239
Frame#	Time	Hip			RHip			RKnee			RAnkle			RBigToe			RSmallToe			RHeel			LHip			LKnee			LAnkle			LBigToe			LSmallToe			LHeel			Neck			Head			Nose			RShoulder			RElbow			RWrist			LShoulder			LElbow			LWrist		
		X1	Y1	Z1	X2	Y2	Z2	X3	Y3	Z3	X4	Y4	Z4	X5	Y5	Z5	X6	Y6	Z6	X7	Y7	Z7	X8	Y8	Z8	X9	Y9	Z9	X10	Y10	Z10	X11	Y11	Z11	X12	Y12	Z12	X13	Y13	Z13	X14	Y14	Z14	X15	Y15	Z15	X16	Y16	Z16	X17	Y17	Z17	X18	Y18	Z18	X19	Y19	Z19	X20	Y20	Z20	X21	Y21	Z21	X22	Y22	Z22
179	5.991736694677871	0.859288672729997	-0.582468347503054	0.0	0.8559319232228443	-0.5847435735095176	0.0	0.8652474033792092	-0.687641242613893	0.0	0.8531767037651956	-0.8065938603517364	0.0	0.9013847310801355	-0.8318788763727876	0.0	0.8906714435620304	-0.8353381972309619	0.0	0.8426152000502058	-0.8248854362679447	0.0	0.861899800216365	-0.5849456216910276	0.0	0.8502693419069864	-0.6876371905834032	0.0	0.831963439748193	-0.8019974339559927	0.0	0.8771607276012908	-0.8168845013980179	0.0	0.8745284991000023	-0.8160061259314841	0.0	0.8241435144780543	-0.8194289599199639	0.0	0.8679274864128063	-0.421078785550201	0.0	0.8900610691452217	-0.3483606506393799	0.0	0.8887454994719409	-0.3929251849990998	0.0	0.8393123624165392	-0.44131945408818846	0.0	0.815135463918147	-0.512109900511091	0.0	0.8399059490211558	-0.5813961183449231	0.0	0.8766134960083195	-0.4454110676865974	0.0	0.8767526936958399	-0.5200331354400112	0.0	0.9055685288264956	-0.5840969822464819	0.0
180	6.025210084033613	0.8588222263023025	-0.584737868719176	0.0	0.8560036846396365	-0.5868140043559207	0.0	0.864948047423659	-0.690098549329144	0.0	0.8534062839275951	-0.8088881081817366	0.0	0.9013558034423335	-0.8338576037925536	0.0	0.8906856208112445	-0.8372178722599875	0.0	0.8431841056158638	-0.8271766483054476	0.0	0.8605878209341226	-0.586997455059518	0.0	0.8493805027967603	-0.6900731702589081	0.0	0.8317428555899032	-0.8043584112240092	0.0	0.8778968726595091	-0.8197729800826077	0.0	0.8744779324137346	-0.8185801180044477	0.0	0.8240731910517739	-0.821541571282584	0.0	0.8679436876070514	-0.423332194418308	0.0	0.8899021531181258	-0.35071928633489324	0.0	0.8892558051450776	-0.3954663991443183	0.0	0.8397998562720054	-0.4433725354918677	0.0	0.815492758643347	-0.5141904009372701	0.0	0.8414482036329878	-0.5827032858107042	0.0	0.8765456993156011	-0.4474718203950058	0.0	0.8765969640772365	-0.5226082033175642	0.0	0.9066548081489012	-0.5857119202521894	0.0
181	6.0586834733893555	0.8584202322620917	-0.5875855379439984	0.0	0.8560972342555918	-0.5893688506803434	0.0	0.8645116147979693	-0.6931532646715576	0.0	0.8535879570132828	-0.8116885602635047	0.0	0.9006225116181875	-0.8361296532992618	0.0	0.890103008905	-0.8394656845327453	0.0	0.8436341039345614	-0.8298970165858701	0.0	0.859454770875662	-0.5895905743405756	0.0	0.8485898210748094	-0.6931023072407753	0.0	0.8315595016857636	-0.8071902327279207	0.0	0.8785984160052819	-0.823127029843549	0.0	0.8743155424348172	-0.8217071981309105	0.0	0.8239497893539993	-0.8242045378608525	0.0	0.867913968499358	-0.4262085761630151	0.0	0.889830290426791	-0.35375160886837076	0.0	0.8897921211042216	-0.3986683644139741	0.0	0.8403042107289966	-0.4460505454793734	0.0	0.8160205443039336	-0.5169519092848068	0.0	0.8429643159552694	-0.5847975684618184	0.0	0.8763956355763121	-0.45016744117486973	0.0	0.8765413233945382	-0.525785659212366	0.0	0.9074825886425159	-0.5881595948676024	0.0
182	6.092156862745098	0.8581800115189984	-0.5906572439423685	0.0	0.8561333550497726	-0.5921202518133875	0.0	0.863945780604467	-0.6964379803599032	0.0	0.8535680665802018	-0.814666494879842	0.0	0.8990324342797644	-0.8382655642248549	0.0	0.8887872158267138	-0.8417294447191223	0.0	0.8437739505856928	-0.8326316459244631	0.0	0.858796266563222	-0.5924184239255111	0.0	0.8480546946883643	-0.6963830890745726	0.0	0.8314350923124566	-0.8101801958098641	0.0	0.8791360534557278	-0.8263716244066623	0.0	0.8741007875677735	-0.8249161137149627	0.0	0.8238147686115521	-0.827105974985426	0.0	0.8677904925462682	-0.42942856526949663	0.0	0.8897830376361371	-0.35710107690372417	0.0	0.8902382091740192	-0.402177998082208	0.0	0.8406715272160077	-0.4489968981461949	0.0	0.8166897154467594	-0.5201318544464366	0.0	0.8443214402096914	-0.5875616229353436	0.0	0.8761655189237536	-0.4531900279871046	0.0	0.8765582241953619	-0.5291510829645517	0.0	0.907827122661975	-0.5913012750956301	0.0
183	6.12563025210084	0.8581383281996567	-0.5935813562521612	0.0	0.8560374425091953	-0.5947366853847513	0.0	0.8632576044715968	-0.6995682244814101	0.0	0.8532366159399273	-0.8174651416534415	0.0	0.8967214614759491	-0.8399527472714117	0.0	0.8868546137727996	-0.8436828857304179	0.0	0.8435143406153278	-0.8350505422818174	0.0	0.8588108872625683	-0.5951491887687635	0.0	0.8478825550438074	-0.6995468320191245	0.0	0.8313813624682271	-0.8130197715118733	0.0	0.8794905485396356	-0.8290876549579873	0.0	0.8740556702617003	-0.8277693383666892	0.0	0.8236870946935668	-0.8299025435650735	0.0	0.8675630862419321	-0.4326496728141102	0.0	0.8896978030833583	-0.36043653452527996	0.0	0.8905637295779935	-0.40565647796520343	0.0	0.8407982017605473	-0.45187754329353075	0.0	0.8174477713408422	-0.5234485862897402	0.0	0.8454284684603672	-0.5908019683974801	0.0	0.8758886001316392	-0.4561992228718306	0.0	0.8765598014017045	-0.5323111088247345	0.0	0.9074450511311785	-0.5948556145123028	0.0
184	6.159103641456582	0.8582345966560433	-0.5960309563285222	0.0	0.8558034840909592	-0.5969187541986355	0.0	0.8624575589478838	-0.7022133673714421	0.0	0.8526310200736105	-0.8198201306008344	0.0	0.8941583127965393	-0.8411364636997233	0.0	0.8847235810595151	-0.8451563604495942	0.0	0.8429064238999578	-0.8370204646756678	0.0	0.8594840220667349	-0.5975185606896302	0.0	0.8481177323478356	-0.702233445714239	0.0	0.8314327533784496	-0.815468351198411	0.0	0.8797723041785381	-0.8311708636811039	0.0	0.8744383536072976	-0.8300081139995549	0.0	0.8235433003641053	-0.832343486983179	0.0	0.8672723582117048	-0.43549148050309483	0.0	0.8895296176176445	-0.36347524730406283	0.0	0.8907690634708104	-0.4087625869711755	0.0	0.84072650477743	-0.45439963525955035	0.0	0.8182388917323825	-0.5265399047177924	0.0	0.846236281370124	-0.5941907427239476	0.0	0.8755937977382466	-0.4588788034469629	0.0	0.8764332194297805	-0.5349717309269741	0.0	0.9061459183133161	-0.598388476886141	0.0
185	6.192577030812325	0.858335844896905	-0.5978237840545986	0.0	0.8554748198279496	-0.5984856966381025	0.0	0.8615822663623629	-0.7041775354290527	0.0	0.851917561058682	-0.8216139365614352	0.0	0.8920636351398931	-0.8419359986490992	0.0	0.8830253790448676	-0.846151871646353	0.0	0.8420942418183006	-0.8385747996126103	0.0	0.8605799475224222	-0.599378347639961	0.0	0.848703529154539	-0.7041860110484104	0.0	0.8315982334404762	-0.8173713518489538	0.0	0.8800509232948835	-0.8326642392138648	0.0	0.8752499125803775	-0.8314834456842737	0.0	0.8233384771383736	-0.8343087408307583	0.0	0.8669743095408883	-0.43762943249377956	0.0	0.8892440838556603	-0.3659811163225444	0.0	0.8908504320713978	-0.4111900880803519	0.0	0.8405963797342377	-0.45633532700617624	0.0	0.8190009656424514	-0.52904657468064	0.0	0.8467433217166659	-0.5973165296685515	0.0	0.8752574157290249	-0.46096566106472914	0.0	0.8760232863995853	-0.536913976459486	0.0	0.90381267006786	-0.6014268885281424	0.0
186	6.226050420168067	0.8583073390542773	-0.5989728145110015	0.0	0.8551267928685361	-0.5993923214735342	0.0	0.860699157106887	-0.7054198887257431	0.0	0.8513112438920847	-0.8228298162646915	0.0	0.8911585690984325	-0.8424834444216563	0.0	0.8823761945854803	-0.8467524456388812	0.0	0.8412948493621277	-0.8397779534096776	0.0	0.8617170174118745	-0.6006792285675449	0.0	0.8494387779579087	-0.7053377298954657	0.0	0.8318117514144502	-0.8186431484245926	0.0	0.8802717061758129	-0.8335943569664623	0.0	0.8761684409834104	-0.8321019549275465	0.0	0.8230663226060096	-0.8357262476630258	0.0	0.8667262185531386	-0.4388606916565008	0.0	0.8888030725221467	-0.36779879507416874	0.0	0.8907774059246347	-0.4127250928044685	0.0	0.8405149173781233	-0.45753963440202516	0.0	0.8196737928743595	-0.5307085332005943	0.0	0.8469793958300647	-0.5998289406479272	0.0	0.8748197130432238	-0.46229913898079583	0.0	0.875143959287595	-0.5380046903209508	0.0	0.9004481321748041	-0.6036556604059506	0.0
187	6.2595238095238095	0.8581029689721168	-0.5995949032650726	0.0	0.8548529750516404	-0.5996657068677169	0.0	0.8598782557393361	-0.7059869095289251	0.0	0.850973239766794	-0.8234620338393343	0.0	0.891794055985334	-0.8428323779364687	0.0	0.8830458366099722	-0.8470227749044522	0.0	0.8407463720013032	-0.8405948071082635	0.0	0.8625528220532922	-0.6013893506236135	0.0	0.8500613382876107	-0.7057658763381375	0.0	0.831988313558731	-0.8192374312501652	0.0	0.8804094203453279	-0.8339717621141034	0.0	0.8768619068144281	-0.8319030954936265	0.0	0.8227686489424029	-0.8364863208243607	0.0	0.8665670718321146	-0.43910269443931704	0.0	0.8882110919520702	-0.36884320428208744	0.0	0.8905191277997759	-0.41327267414866753	0.0	0.8404993775942642	-0.4579325540930572	0.0	0.8202187367818382	-0.5313945086625548	0.0	0.8469777699647215	-0.6015295450237099	0.0	0.8742517337175663	-0.4628207514012765	0.0	0.873649312053229	-0.5382035198089936	0.0	0.8962175100321443	-0.6049630414305068	0.0
188	6.292997198879552	0.8577975686265343	-0.5997462193437488	0.0	0.8546953546408624	-0.5993073575821823	0.0	0.8591932524021982	-0.7058923494649321	0.0	0.8509042116304835	-0.8234402914092519	0.0	0.8936592318451343	-0.8428956470722234	0.0	0.8847009572974621	-0.8469273901868517	0.0	0.8405776643122321	-0.840839419026156	0.0	0.8629603669981223	-0.6013910552746866	0.0	0.8504158784487338	-0.705550853013341	0.0	0.8320974183742882	-0.8190945075082233	0.0	0.8805178467269463	-0.8338093209321379	0.0	0.8772528206011141	-0.8310907666314256	0.0	0.8224904093597245	-0.8364387111032915	0.0	0.8664723600732209	-0.4384024173943782	0.0	0.8876092053092817	-0.36901006744250237	0.0	0.8901236678916608	-0.4128452403639671	0.0	0.8405009394629014	-0.4574976192150083	0.0	0.8206023627331245	-0.5311254015161119	0.0	0.8467651918959279	-0.6022925291117146	0.0	0.8735861876080937	-0.46250066024076153	0.0	0.8714904936276259	-0.5374424264979559	0.0	0.8913986931255516	-0.6052633022116854	0.0
189	6.326470588235294	0.8575151697773286	-0.5993696173143397	0.0	0.8546216928442887	-0.5982736543930909	0.0	0.8587330191697213	-0.7050638248572961	0.0	0.8509652347345049	-0.822651769935519	0.0	0.8959044267130315	-0.8424701667532905	0.0	0.8865560915928848	-0.8463322770637217	0.0	0.8407533528025812	-0.8402687239252318	0.0	0.863004435882421	-0.6005276776145274	0.0	0.850513911485406	-0.7047110559269621	0.0	0.8321494801093401	-0.8181282866423185	0.0	0.8806002143388763	-0.8331455984825471	0.0	0.8774536157966971	-0.829951885864584	0.0	0.822253139100736	-0.8354727571285177	0.0	0.8663575723757535	-0.4369421678364845	0.0	0.8872486185590839	-0.36817727731520417	0.0	0.8897332469959041	-0.41153252742863516	0.0	0.8404546042308754	-0.4563024835178915	0.0	0.8207847355542801	-0.5300418666867786	0.0	0.8463588380818569	-0.6019723048033444	0.0	0.8728868639910017	-0.46132981869354084	0.0	0.8687418705181281	-0.5356068585849789	0.0	0.8863039241727148	-0.6043668917272812	0.0
